HIERARCHY
ROOT Hips
{
	OFFSET 0.000000 71.206352 2.654994
	CHANNELS 6 Xposition Yposition Zposition Xrotation Yrotation Zrotation
	JOINT Pelvis
	{
		OFFSET 0.000000 0.000000 0.000000
		CHANNELS 3 Xrotation Yrotation Zrotation
		JOINT LeftUpLeg
		{
			OFFSET 6.797117 -2.508530 -1.318654
			CHANNELS 3 Xrotation Yrotation Zrotation
			JOINT LeftLeg
			{
				OFFSET 2.604768 -29.125713 0.690240
				CHANNELS 3 Xrotation Yrotation Zrotation
				JOINT LeftFoot
				{
					OFFSET 2.495626 -29.462662 -0.266779
					CHANNELS 3 Xrotation Yrotation Zrotation
					JOINT LeftToeBase
					{
						OFFSET 3.145477 -8.630991 16.059889
						CHANNELS 3 Xrotation Yrotation Zrotation
						End Site
						{
							OFFSET 0.000000 18.501570 0.000000
						}
					}
				}
			}
			JOINT Left_ShortSleeve
			{
				OFFSET 1.173896 -10.418373 1.153777
				CHANNELS 3 Xrotation Yrotation Zrotation
				End Site
				{
					OFFSET 0.000000 19.898849 0.000000
				}
			}
		}
		JOINT RightUpLeg
		{
			OFFSET -6.797117 -2.508530 -1.318654
			CHANNELS 3 Xrotation Yrotation Zrotation
			JOINT RightLeg
			{
				OFFSET -2.618195 -29.124561 0.688025
				CHANNELS 3 Xrotation Yrotation Zrotation
				JOINT RightFoot
				{
					OFFSET -2.482200 -29.463818 -0.264565
					CHANNELS 3 Xrotation Yrotation Zrotation
					JOINT RightToeBase
					{
						OFFSET -3.115344 -8.682778 16.113401
						CHANNELS 3 Xrotation Yrotation Zrotation
						End Site
						{
							OFFSET 0.000000 18.567112 0.000000
						}
					}
				}
			}
			JOINT Right_ShortSleeve
			{
				OFFSET -1.173896 -10.418373 1.153777
				CHANNELS 3 Xrotation Yrotation Zrotation
				End Site
				{
					OFFSET 0.000000 19.898849 0.000000
				}
			}
		}
	}
	JOINT Spine
	{
		OFFSET 0.000000 13.368111 0.470529
		CHANNELS 3 Xrotation Yrotation Zrotation
		JOINT Spine1
		{
			OFFSET 0.146996 13.837402 0.538789
			CHANNELS 3 Xrotation Yrotation Zrotation
			JOINT Spine2
			{
				OFFSET 0.167995 16.242874 -1.435485
				CHANNELS 3 Xrotation Yrotation Zrotation
				JOINT Neck
				{
					OFFSET 0.217193 18.631516 -1.679142
					CHANNELS 3 Xrotation Yrotation Zrotation
					JOINT Head
					{
						OFFSET 0.000000 6.599380 1.385859
						CHANNELS 3 Xrotation Yrotation Zrotation
						JOINT Hat
						{
							OFFSET -0.532184 27.220581 -10.096070
							CHANNELS 3 Xrotation Yrotation Zrotation
							End Site
							{
								OFFSET 0.000000 22.029861 0.000000
							}
						}
						JOINT HairD
						{
							OFFSET -10.777430 17.437408 -1.325938
							CHANNELS 3 Xrotation Yrotation Zrotation
							JOINT HairD1
							{
								OFFSET -3.290256 -11.051163 1.062188
								CHANNELS 3 Xrotation Yrotation Zrotation
								End Site
								{
									OFFSET 0.000000 11.579391 0.000000
								}
							}
						}
						JOINT HairB
						{
							OFFSET -10.777430 17.437408 1.467893
							CHANNELS 3 Xrotation Yrotation Zrotation
							JOINT HairB1
							{
								OFFSET -1.561211 -12.956329 3.590162
								CHANNELS 3 Xrotation Yrotation Zrotation
								End Site
								{
									OFFSET 0.000000 13.534882 0.000000
								}
							}
						}
						JOINT HairA
						{
							OFFSET 9.713062 17.437408 1.467893
							CHANNELS 3 Xrotation Yrotation Zrotation
							JOINT HairA1
							{
								OFFSET 1.561211 -12.956329 3.590162
								CHANNELS 3 Xrotation Yrotation Zrotation
								End Site
								{
									OFFSET 0.000000 13.534882 0.000000
								}
							}
						}
						JOINT HairC
						{
							OFFSET 9.713062 17.437408 -1.325938
							CHANNELS 3 Xrotation Yrotation Zrotation
							JOINT HairC1
							{
								OFFSET 3.290255 -11.051163 1.062188
								CHANNELS 3 Xrotation Yrotation Zrotation
								End Site
								{
									OFFSET 0.000000 11.579391 0.000000
								}
							}
						}
					}
				}
				JOINT LeftShoulder
				{
					OFFSET 5.101767 15.108002 -2.763695
					CHANNELS 3 Xrotation Yrotation Zrotation
					JOINT LeftArm
					{
						OFFSET 9.825546 2.506256 -1.597438
						CHANNELS 3 Xrotation Yrotation Zrotation
						JOINT LeftForeArm
						{
							OFFSET 21.924620 0.000000 -1.351923
							CHANNELS 3 Xrotation Yrotation Zrotation
							JOINT LeftHand
							{
								OFFSET 33.867149 -0.000336 -0.895185
								CHANNELS 3 Xrotation Yrotation Zrotation
								JOINT LeftHandThumb1
								{
									OFFSET 6.800735 -1.610214 3.624442
									CHANNELS 3 Xrotation Yrotation Zrotation
									JOINT LeftHandThumb2
									{
										OFFSET 2.133118 -1.047562 2.197256
										CHANNELS 3 Xrotation Yrotation Zrotation
										JOINT LeftHandThumb3
										{
											OFFSET 2.939781 -1.955193 1.239051
											CHANNELS 3 Xrotation Yrotation Zrotation
											End Site
											{
												OFFSET 0.000000 3.741707 0.000000
											}
										}
									}
								}
								JOINT LeftHandIndex1
								{
									OFFSET 14.184837 0.837936 3.778969
									CHANNELS 3 Xrotation Yrotation Zrotation
									JOINT LeftHandIndex2
									{
										OFFSET 3.454674 -0.747025 -0.349037
										CHANNELS 3 Xrotation Yrotation Zrotation
										JOINT LeftHandIndex3
										{
											OFFSET 2.708313 -1.000595 -0.200658
											CHANNELS 3 Xrotation Yrotation Zrotation
											End Site
											{
												OFFSET 0.000000 2.894211 0.000000
											}
										}
									}
								}
								JOINT LeftHandMiddle1
								{
									OFFSET 13.765343 0.551865 -0.058510
									CHANNELS 3 Xrotation Yrotation Zrotation
									JOINT LeftHandMiddle2
									{
										OFFSET 3.329315 -0.830414 -0.218270
										CHANNELS 3 Xrotation Yrotation Zrotation
										JOINT LeftHandMiddle3
										{
											OFFSET 3.521812 -1.082275 -0.230450
											CHANNELS 3 Xrotation Yrotation Zrotation
											End Site
											{
												OFFSET 0.000000 3.691559 0.000000
											}
										}
									}
								}
								JOINT LeftHandRing1
								{
									OFFSET 13.969360 -0.122360 -3.062001
									CHANNELS 3 Xrotation Yrotation Zrotation
									JOINT LeftHandRing2
									{
										OFFSET 3.063065 -0.760193 -0.203345
										CHANNELS 3 Xrotation Yrotation Zrotation
										JOINT LeftHandRing3
										{
											OFFSET 3.200409 -0.861923 -0.256632
											CHANNELS 3 Xrotation Yrotation Zrotation
											End Site
											{
												OFFSET 0.000000 3.324356 0.000000
											}
										}
									}
								}
								JOINT LeftHandPinky1
								{
									OFFSET 13.134644 -0.420990 -5.726565
									CHANNELS 3 Xrotation Yrotation Zrotation
									JOINT LeftHandPinky2
									{
										OFFSET 2.705887 -0.872284 -0.187246
										CHANNELS 3 Xrotation Yrotation Zrotation
										JOINT LeftHandPinky3
										{
											OFFSET 2.653091 -0.882462 -0.224701
											CHANNELS 3 Xrotation Yrotation Zrotation
											End Site
											{
												OFFSET 0.000000 2.805023 0.000000
											}
										}
									}
								}
							}
							JOINT Left_Sleeve
							{
								OFFSET 6.611050 -0.646652 0.631114
								CHANNELS 3 Xrotation Yrotation Zrotation
								End Site
								{
									OFFSET 0.000000 20.275742 0.000000
								}
							}
						}
					}
				}
				JOINT RightShoulder
				{
					OFFSET -5.731749 15.108002 -2.763695
					CHANNELS 3 Xrotation Yrotation Zrotation
					JOINT RightArm
					{
						OFFSET -9.825546 2.506256 -1.597438
						CHANNELS 3 Xrotation Yrotation Zrotation
						JOINT RightForeArm
						{
							OFFSET -21.924620 0.000000 -1.351923
							CHANNELS 3 Xrotation Yrotation Zrotation
							JOINT RightHand
							{
								OFFSET -33.867149 -0.000336 -0.895185
								CHANNELS 3 Xrotation Yrotation Zrotation
								JOINT RightHandThumb1
								{
									OFFSET -6.800735 -1.610214 3.624442
									CHANNELS 3 Xrotation Yrotation Zrotation
									JOINT RightHandThumb2
									{
										OFFSET -2.133118 -1.047562 2.197256
										CHANNELS 3 Xrotation Yrotation Zrotation
										JOINT RightHandThumb3
										{
											OFFSET -2.939781 -1.955193 1.239051
											CHANNELS 3 Xrotation Yrotation Zrotation
											End Site
											{
												OFFSET 0.000000 3.741707 0.000000
											}
										}
									}
								}
								JOINT RightHandIndex1
								{
									OFFSET -14.184837 0.837936 3.778969
									CHANNELS 3 Xrotation Yrotation Zrotation
									JOINT RightHandIndex2
									{
										OFFSET -3.454674 -0.747025 -0.349037
										CHANNELS 3 Xrotation Yrotation Zrotation
										JOINT RightHandIndex3
										{
											OFFSET -2.708313 -1.000595 -0.200658
											CHANNELS 3 Xrotation Yrotation Zrotation
											End Site
											{
												OFFSET 0.000000 2.894211 0.000000
											}
										}
									}
								}
								JOINT RightHandMiddle1
								{
									OFFSET -13.765343 0.551865 -0.058511
									CHANNELS 3 Xrotation Yrotation Zrotation
									JOINT RightHandMiddle2
									{
										OFFSET -3.329315 -0.830414 -0.218269
										CHANNELS 3 Xrotation Yrotation Zrotation
										JOINT RightHandMiddle3
										{
											OFFSET -3.521812 -1.082275 -0.230450
											CHANNELS 3 Xrotation Yrotation Zrotation
											End Site
											{
												OFFSET 0.000000 3.691559 0.000000
											}
										}
									}
								}
								JOINT RightHandRing1
								{
									OFFSET -13.969353 -0.122360 -3.062001
									CHANNELS 3 Xrotation Yrotation Zrotation
									JOINT RightHandRing2
									{
										OFFSET -3.063072 -0.760193 -0.203345
										CHANNELS 3 Xrotation Yrotation Zrotation
										JOINT RightHandRing3
										{
											OFFSET -3.200409 -0.861923 -0.256632
											CHANNELS 3 Xrotation Yrotation Zrotation
											End Site
											{
												OFFSET 0.000000 3.324356 0.000000
											}
										}
									}
								}
								JOINT RightHandPinky1
								{
									OFFSET -13.134644 -0.420990 -5.726565
									CHANNELS 3 Xrotation Yrotation Zrotation
									JOINT RightHandPinky2
									{
										OFFSET -2.705887 -0.872284 -0.187247
										CHANNELS 3 Xrotation Yrotation Zrotation
										JOINT RightHandPinky3
										{
											OFFSET -2.653091 -0.882462 -0.224700
											CHANNELS 3 Xrotation Yrotation Zrotation
											End Site
											{
												OFFSET 0.000000 2.805023 0.000000
											}
										}
									}
								}
							}
							JOINT Right_Sleeve
							{
								OFFSET -6.611050 -0.646652 0.631114
								CHANNELS 3 Xrotation Yrotation Zrotation
								End Site
								{
									OFFSET 0.000000 20.275742 0.000000
								}
							}
						}
					}
				}
				JOINT Bind_Right_JacketString
				{
					OFFSET -3.534774 11.969604 7.200667
					CHANNELS 3 Xrotation Yrotation Zrotation
					JOINT Bind_Right_JacketString1
					{
						OFFSET -0.319887 -6.102631 2.794061
						CHANNELS 3 Xrotation Yrotation Zrotation
						End Site
						{
							OFFSET 0.000000 6.719467 0.000000
						}
					}
				}
				JOINT Bind_Left_JacketString
				{
					OFFSET 2.904793 11.969604 7.200667
					CHANNELS 3 Xrotation Yrotation Zrotation
					JOINT Bind_Left_JacketString1
					{
						OFFSET 0.364847 -5.904457 3.186764
						CHANNELS 3 Xrotation Yrotation Zrotation
						End Site
						{
							OFFSET 0.000000 6.719460 0.000000
						}
					}
				}
				JOINT HairE
				{
					OFFSET 5.915198 17.612656 -11.592244
					CHANNELS 3 Xrotation Yrotation Zrotation
					JOINT HairE1
					{
						OFFSET 0.289203 -7.171906 -1.284488
						CHANNELS 3 Xrotation Yrotation Zrotation
						End Site
						{
							OFFSET 0.000000 7.291763 0.000000
						}
					}
				}
				JOINT HairF
				{
					OFFSET -0.864797 17.612656 -11.592244
					CHANNELS 3 Xrotation Yrotation Zrotation
					JOINT HairF1
					{
						OFFSET -0.000000 -14.087097 -2.127508
						CHANNELS 3 Xrotation Yrotation Zrotation
						End Site
						{
							OFFSET 0.000000 14.246841 0.000000
						}
					}
				}
				JOINT HairG
				{
					OFFSET -8.087694 17.612656 -11.592244
					CHANNELS 3 Xrotation Yrotation Zrotation
					JOINT HairG1
					{
						OFFSET -0.293551 -6.081375 -0.910136
						CHANNELS 3 Xrotation Yrotation Zrotation
						End Site
						{
							OFFSET 0.000000 6.156113 0.000000
						}
					}
				}
			}
		}
	}
	JOINT Pouch
	{
		OFFSET 0.000000 4.394547 10.847303
		CHANNELS 3 Xrotation Yrotation Zrotation
		End Site
		{
			OFFSET 0.000000 21.880577 0.000000
		}
	}
	JOINT Bag
	{
		OFFSET -13.229022 4.813034 -0.593262
		CHANNELS 3 Xrotation Yrotation Zrotation
		End Site
		{
			OFFSET 0.000000 21.880577 0.000000
		}
	}
	JOINT OccupyGuyFacialAnim_Joint
	{
		OFFSET 1.000000 -70.206352 -1.654994
		CHANNELS 3 Xrotation Yrotation Zrotation
		End Site
		{
			OFFSET 0.000000 21.880581 0.000000
		}
	}
}
MOTION
Frames: 5
Frame Time: 0.016667
-0.898710 66.542564 0.331884 -6.079184 -42.950794 -4.012103 0.000000 0.000000 0.000000 -24.712017 6.249970 8.990041 35.977297 -11.700419 -1.025591 -7.849179 0.257877 -2.503908 -0.000000 0.000000 0.000000 0.000001 0.000000 0.000001 -2.871011 -14.312049 -9.561470 33.449397 -11.515015 0.386215 -23.914968 -2.495069 12.149663 0.000000 0.000000 0.000000 -0.000001 0.000001 -0.000000 5.834819 4.558275 -1.232716 11.839514 9.031713 -3.079606 11.839513 9.031706 -3.079604 -4.303138 -1.284330 0.197019 -6.271521 20.437796 -0.378349 0.000000 0.000000 -0.000000 0.000000 0.000000 -0.000000 0.000000 0.000000 -0.000000 0.000000 0.000000 -0.000000 0.000000 0.000000 -0.000000 0.000000 0.000000 -0.000000 0.000000 0.000000 -0.000000 0.000000 0.000000 -0.000000 0.000000 0.000000 -0.000000 1.386277 -0.696146 -7.880981 -17.411605 0.804857 -63.189113 9.460359 -45.553547 5.221742 23.696264 4.576789 15.602797 14.660195 15.858926 -5.724846 -14.509523 -19.047128 3.720645 0.000001 -0.000002 0.000003 0.149229 -12.862725 11.783979 -0.744350 0.182054 -8.256817 0.000001 -0.000001 -0.000001 1.124168 4.287992 0.641919 -3.138703 -3.758309 -18.399420 -0.000000 0.000002 -0.000002 -0.273980 7.587843 -16.371098 -5.675078 -6.050306 -30.405653 0.000003 0.000001 -0.000000 0.795087 10.756180 -16.287576 -8.479787 -8.816144 -38.285942 -0.000001 0.000001 0.000000 -0.000001 -0.000004 0.000001 1.402685 9.461291 9.791352 -2.105217 -22.499774 59.212624 -6.582599 39.853262 7.682071 13.953518 12.553354 12.578282 -4.592839 -16.544354 -0.350524 -5.658000 0.037655 -7.974939 0.000000 0.000000 -0.000001 -0.611247 4.877111 -9.834625 -0.682208 -0.412144 8.815901 0.000000 0.000001 -0.000001 -1.046371 2.306278 -3.286466 -4.666892 4.605951 27.031302 0.000000 0.000001 0.000000 0.928598 -1.130001 6.261950 -7.189334 7.216044 35.758253 0.000000 0.000002 0.000001 1.735351 -3.384095 5.155026 -10.095736 10.626013 39.915608 -0.000000 0.000000 -0.000003 0.000001 -0.000001 0.000002 -0.000000 0.000003 -0.000001 -0.000000 0.000003 -0.000001 -0.000000 0.000003 -0.000001 -0.000000 0.000003 -0.000001 -0.000000 0.000003 -0.000001 -0.000001 -0.000001 -0.000001 -0.000000 0.000003 -0.000001 -0.000000 0.000003 -0.000001 -0.000000 0.000003 -0.000001 -0.000001 -0.000001 -0.000000 0.000000 0.000000 0.000000 0.000000 0.000000 0.000000 0.000000 0.000000 0.000000 
-0.820324 66.555840 0.316047 -5.602474 -42.978002 -3.849000 0.000000 -0.000001 -0.000000 -25.069178 5.975981 8.990409 35.913247 -11.460098 -0.974731 -7.755524 0.281859 -2.562161 -0.000000 -0.000003 -0.000000 -0.000001 -0.000001 0.000000 -3.124424 -14.063167 -9.317599 33.272440 -11.783079 0.372335 -23.728531 -2.523306 12.185719 -0.000000 -0.000000 -0.000000 0.000000 -0.000001 0.000001 5.817121 4.442200 -1.232328 11.799046 8.799395 -3.072766 11.799047 8.799393 -3.072767 -4.422135 -1.092328 0.277848 -5.829503 20.627349 -0.313117 0.000000 0.000000 -0.000000 0.000000 0.000000 -0.000000 0.000000 0.000000 0.000000 0.000000 0.000000 -0.000000 0.000000 0.000000 -0.000000 0.000000 0.000000 -0.000000 0.000000 0.000000 -0.000000 0.000000 0.000000 -0.000000 0.000000 0.000000 0.000000 1.383088 -0.397813 -7.926324 -17.167423 1.116569 -62.666419 9.503986 -46.213118 5.321136 23.570636 4.555609 15.107847 14.332307 15.659669 -5.624896 -14.488663 -19.001576 3.740239 0.000001 0.000001 -0.000001 0.117239 -12.830996 11.660718 -0.754882 0.170458 -8.308978 -0.000000 -0.000001 0.000002 1.094303 4.153519 0.645321 -3.116797 -3.738482 -18.288240 0.000001 0.000000 -0.000001 -0.303164 7.511275 -16.207310 -5.629494 -6.031100 -30.186807 0.000001 0.000001 -0.000000 0.788989 10.750842 -16.017519 -8.444253 -8.811040 -38.094506 -0.000001 0.000001 0.000000 -0.000003 -0.000002 0.000000 1.380340 9.243849 9.868228 -2.507400 -21.453740 58.343612 -5.980565 39.837413 8.113917 13.455177 12.403377 12.179222 -4.696690 -16.369161 -0.461681 -5.754725 0.264284 -7.948790 0.000002 0.000001 -0.000002 -0.633692 4.962418 -9.762604 -0.687541 -0.406547 8.843782 -0.000000 0.000001 -0.000001 -1.054250 2.341002 -3.267227 -4.615545 4.572137 26.778484 -0.000000 0.000000 0.000001 0.937224 -1.149806 6.228857 -7.114530 7.189111 35.442009 0.000000 0.000001 0.000001 1.786296 -3.482770 5.037895 -10.039876 10.613743 39.675012 -0.000001 -0.000000 -0.000002 0.000001 -0.000000 0.000001 -0.000000 -0.000001 0.000001 -0.000000 -0.000001 0.000001 -0.000000 -0.000001 0.000001 -0.000000 -0.000001 -0.000000 -0.000000 -0.000001 -0.000000 -0.000001 -0.000001 -0.000000 -0.000000 -0.000001 0.000001 -0.000000 -0.000001 0.000001 -0.000000 -0.000001 -0.000000 -0.000000 -0.000001 -0.000000 0.000000 -0.000001 -0.000000 0.000000 -0.000001 -0.000000 0.000000 -0.000001 -0.000000 
-0.579919 66.454941 0.237765 -4.783153 -43.079837 -3.344326 0.000000 -0.000001 -0.000000 -26.006176 5.435971 8.687568 36.333970 -10.835716 -0.816017 -7.753794 0.328672 -2.668512 -0.000000 0.000003 0.000000 0.000001 -0.000000 -0.000000 -4.259355 -13.521603 -9.396184 33.997130 -12.123545 0.470574 -23.789482 -2.597279 12.304868 -0.000000 0.000000 0.000000 0.000000 0.000001 0.000001 5.839559 4.238516 -1.222258 11.833213 8.390644 -3.031210 11.833216 8.390645 -3.031210 -4.921772 -0.745163 0.377360 -5.471395 20.932037 -0.687780 0.000000 -0.000000 -0.000000 0.000000 -0.000000 -0.000000 0.000000 0.000000 -0.000000 0.000000 -0.000000 -0.000000 0.000000 -0.000000 -0.000000 0.000000 -0.000000 -0.000000 0.000000 -0.000000 -0.000000 0.000000 -0.000000 -0.000000 0.000000 0.000000 -0.000000 1.353758 -0.084326 -8.114121 -16.838132 1.813730 -61.898733 9.348668 -47.828376 6.077737 23.348110 4.607639 14.220879 13.534845 15.078870 -5.480153 -14.452800 -18.918137 3.779444 0.000001 0.000002 -0.000003 0.029801 -12.779407 11.350199 -0.784513 0.138006 -8.455457 -0.000000 -0.000001 0.000002 1.021513 3.831559 0.629461 -3.070106 -3.695840 -18.050459 -0.000002 0.000001 -0.000002 -0.365303 7.331205 -15.848406 -5.527737 -5.987357 -29.696273 0.000001 -0.000001 -0.000000 0.792647 10.748378 -15.413830 -8.365341 -8.799285 -37.668879 0.000000 0.000001 -0.000000 0.000001 0.000000 -0.000000 1.366462 8.740149 9.888833 -2.995108 -20.202262 57.016312 -5.020554 41.016194 7.982519 13.142166 11.725174 12.083825 -4.984646 -15.899760 -0.694822 -5.996266 0.820612 -7.880653 -0.000001 0.000000 0.000001 -0.696238 5.189471 -9.583963 -0.702846 -0.390574 8.924052 0.000000 -0.000001 0.000000 -1.074022 2.425184 -3.209863 -4.493688 4.495791 26.199192 -0.000001 -0.000001 0.000000 0.959037 -1.206894 6.169432 -6.948258 7.122528 34.713224 -0.000000 -0.000001 0.000001 1.920865 -3.735963 4.785977 -9.912207 10.584674 39.124734 -0.000000 -0.000003 -0.000001 0.000003 0.000001 -0.000001 -0.000001 0.000001 -0.000000 -0.000001 0.000001 -0.000000 -0.000001 0.000001 -0.000000 -0.000001 0.000001 -0.000001 -0.000001 0.000001 -0.000001 -0.000002 -0.000000 -0.000000 -0.000001 0.000001 -0.000000 -0.000001 0.000001 -0.000000 -0.000001 0.000001 -0.000001 -0.000002 -0.000000 -0.000000 0.000000 -0.000001 -0.000000 0.000000 -0.000001 -0.000000 0.000000 -0.000001 -0.000000 
-0.156434 66.190269 0.087019 -3.482838 -43.324307 -2.456640 0.000000 -0.000002 -0.000000 -27.819658 4.734694 8.268018 37.474304 -9.920415 -0.681002 -7.915154 0.354386 -2.720342 0.000000 0.000000 -0.000000 -0.000002 -0.000003 -0.000000 -6.509659 -12.666518 -9.801669 35.844252 -12.446845 0.723935 -24.173250 -2.688657 12.490443 -0.000000 0.000000 -0.000000 0.000000 0.000000 -0.000001 5.897499 3.994243 -1.200396 11.935586 7.898670 -2.958465 11.935590 7.898660 -2.958462 -5.669654 -0.289491 0.470747 -5.266488 21.333568 -1.343459 0.000000 -0.000000 0.000000 0.000000 -0.000000 0.000000 0.000000 0.000000 0.000000 0.000000 -0.000000 0.000000 0.000000 -0.000000 0.000000 0.000000 -0.000000 0.000000 0.000000 -0.000000 0.000000 0.000000 -0.000000 0.000000 0.000000 0.000000 0.000000 1.309650 0.214995 -8.413553 -16.435827 2.768081 -61.060908 9.066466 -50.110724 7.207935 23.095984 4.577068 13.361425 12.424094 14.142572 -5.393074 -14.418874 -18.831431 3.824986 0.000001 0.000000 0.000000 -0.104930 -12.734597 10.900356 -0.830709 0.087491 -8.683821 -0.000000 0.000000 0.000001 0.914757 3.384278 0.579461 -3.011676 -3.642210 -17.752203 0.000004 -0.000001 0.000001 -0.439754 7.083486 -15.387086 -5.398352 -5.926719 -29.051779 -0.000002 -0.000002 -0.000000 0.822951 10.754561 -14.623847 -8.262525 -8.783140 -37.113820 -0.000000 -0.000000 0.000001 -0.000001 0.000001 0.000001 1.342448 8.063067 9.863214 -3.470018 -18.969747 55.486094 -3.825571 43.154296 7.410374 13.095691 10.853130 11.934596 -5.423121 -15.187617 -0.974873 -6.341102 1.611972 -7.779720 -0.000001 -0.000000 -0.000001 -0.794711 5.530750 -9.327869 -0.727104 -0.365450 9.050814 0.000000 -0.000000 0.000000 -1.108863 2.542955 -3.114948 -4.331338 4.391328 25.422029 0.000000 -0.000000 0.000000 0.990506 -1.297389 6.108757 -6.725499 7.029454 33.731316 0.000000 0.000000 0.000000 2.120485 -4.108556 4.468281 -9.741574 10.543809 38.387647 0.000001 0.000001 -0.000002 -0.000000 -0.000000 -0.000000 -0.000000 0.000002 -0.000000 -0.000000 0.000002 -0.000000 -0.000000 0.000002 -0.000000 -0.000000 0.000002 -0.000000 -0.000000 0.000002 -0.000000 -0.000001 -0.000001 0.000000 -0.000000 0.000002 -0.000000 -0.000000 0.000002 -0.000000 -0.000000 0.000002 -0.000000 -0.000001 -0.000001 0.000000 0.000000 -0.000002 -0.000000 0.000000 -0.000002 -0.000000 0.000000 -0.000002 -0.000000 
0.419380 65.719360 -0.126701 -1.568090 -43.851327 -1.186238 -0.000000 -0.000001 -0.000000 -30.755782 4.175720 8.191050 39.497314 -9.074133 -0.895061 -8.283247 0.325466 -2.518519 -0.000000 0.000002 -0.000000 -0.000002 0.000003 0.000000 -9.955707 -11.520353 -10.448139 38.821463 -12.513304 1.175890 -24.901943 -2.780462 12.651471 -0.000000 0.000002 -0.000000 -0.000000 -0.000002 -0.000001 5.973694 3.765433 -1.166513 12.075095 7.433974 -2.865504 12.075098 7.433978 -2.865508 -6.660610 0.299508 0.536925 -5.325497 21.876570 -2.274111 0.000000 0.000000 0.000000 0.000000 0.000000 0.000000 0.000000 0.000000 0.000000 0.000000 0.000000 0.000000 0.000000 0.000000 0.000000 0.000000 0.000000 0.000000 0.000000 0.000000 0.000000 0.000000 0.000000 0.000000 0.000000 0.000000 0.000000 1.252086 0.485967 -8.859136 -15.947795 3.994880 -60.230801 8.682980 -53.135603 8.666887 22.839372 4.303738 12.859036 11.018201 12.874265 -5.321672 -14.378298 -18.725481 3.882321 0.000003 0.000000 0.000000 -0.283550 -12.680058 10.313659 -0.891777 0.021099 -8.984982 0.000000 -0.000001 -0.000001 0.777989 2.804433 0.507655 -2.937708 -3.573471 -17.372644 -0.000002 0.000000 0.000001 -0.523804 6.760454 -14.797892 -5.233258 -5.846799 -28.225041 0.000000 -0.000001 -0.000000 0.873069 10.763187 -13.611872 -8.130896 -8.761027 -36.402504 0.000001 0.000001 -0.000000 -0.000000 -0.000000 -0.000000 1.316226 7.216583 9.790297 -3.839783 -17.921170 53.816362 -2.331927 46.478058 6.275230 13.471296 9.969897 11.394250 -5.980276 -14.247730 -1.312321 -6.793587 2.639555 -7.645155 -0.000001 -0.000000 0.000001 -0.928712 5.977354 -8.992741 -0.758422 -0.332944 9.214244 -0.000000 0.000002 -0.000001 -1.154100 2.695928 -2.988868 -4.124534 4.253666 24.421763 -0.000000 -0.000000 -0.000001 1.031304 -1.416671 6.034607 -6.441011 6.904048 32.466471 0.000001 0.000002 0.000002 2.375771 -4.598004 4.064865 -9.522854 10.488141 37.438692 -0.000000 0.000002 0.000000 -0.000001 0.000000 -0.000001 -0.000001 0.000000 -0.000001 -0.000001 0.000000 -0.000001 -0.000001 0.000000 -0.000001 -0.000001 0.000000 -0.000000 -0.000001 0.000000 -0.000000 -0.000003 -0.000001 0.000000 -0.000001 0.000000 -0.000001 -0.000001 0.000000 -0.000001 -0.000001 0.000000 -0.000000 -0.000003 -0.000001 0.000000 -0.000000 -0.000001 -0.000000 -0.000000 -0.000001 -0.000000 -0.000000 -0.000001 -0.000000 
